<svg width="131" height="24" viewBox="0 0 131 24" fill="none" xmlns="http://www.w3.org/2000/svg">
<path d="M12 5C8.13401 5 5 8.13401 5 12C5 15.866 8.13401 19 12 19C14.7924 19 17.2029 17.3649 18.3264 15H21H22.5859C21.2801 19.617 17.0351 23 12 23C5.92487 23 1 18.0751 1 12C1 5.92487 5.92487 1 12 1C17.0351 1 21.2801 4.38299 22.5859 9H21H18.3264C17.2029 6.63505 14.7924 5 12 5Z" fill="url(#paint0_linear)"/>
<path d="M36.496 12.24C36.496 11.5467 36.6187 10.864 36.864 10.192C37.12 9.52 37.488 8.912 37.968 8.368C38.448 7.824 39.0347 7.392 39.728 7.072C40.4213 6.74133 41.2107 6.576 42.096 6.576C43.1307 6.576 44.032 6.80533 44.8 7.264C45.568 7.72267 46.1387 8.32 46.512 9.056L44.816 10.224C44.624 9.79733 44.3733 9.46133 44.064 9.216C43.7547 8.97067 43.4187 8.79467 43.056 8.688C42.704 8.58133 42.3627 8.528 42.032 8.528C41.4773 8.528 40.992 8.64 40.576 8.864C40.1707 9.088 39.8293 9.38133 39.552 9.744C39.2747 10.1067 39.0667 10.512 38.928 10.96C38.8 11.408 38.736 11.856 38.736 12.304C38.736 12.976 38.8747 13.6053 39.152 14.192C39.4293 14.768 39.8187 15.2373 40.32 15.6C40.8213 15.9627 41.4027 16.144 42.064 16.144C42.4053 16.144 42.7573 16.0853 43.12 15.968C43.4933 15.8507 43.8347 15.664 44.144 15.408C44.4533 15.152 44.6933 14.8213 44.864 14.416L46.672 15.456C46.4373 16.0213 46.0693 16.5013 45.568 16.896C45.0667 17.28 44.5013 17.5787 43.872 17.792C43.2427 17.9947 42.6187 18.096 42 18.096C41.1893 18.096 40.448 17.9307 39.776 17.6C39.1147 17.2587 38.5387 16.8107 38.048 16.256C37.5573 15.6907 37.1733 15.0613 36.896 14.368C36.6293 13.664 36.496 12.9547 36.496 12.24ZM53.8601 18.08C53.0281 18.08 52.2708 17.92 51.5881 17.6C50.9161 17.28 50.3348 16.848 49.8441 16.304C49.3641 15.7493 48.9908 15.1307 48.7241 14.448C48.4575 13.7547 48.3241 13.0453 48.3241 12.32C48.3241 11.5627 48.4628 10.8427 48.7401 10.16C49.0175 9.46667 49.4068 8.85333 49.9081 8.32C50.4095 7.776 50.9961 7.34933 51.6681 7.04C52.3508 6.72 53.0975 6.56 53.9081 6.56C54.7295 6.56 55.4761 6.72533 56.1481 7.056C56.8308 7.38667 57.4121 7.82933 57.8921 8.384C58.3828 8.93867 58.7561 9.56267 59.0121 10.256C59.2788 10.9387 59.4121 11.6373 59.4121 12.352C59.4121 13.0987 59.2735 13.8187 58.9961 14.512C58.7188 15.1947 58.3295 15.808 57.8281 16.352C57.3375 16.8853 56.7508 17.3067 56.0681 17.616C55.3961 17.9253 54.6601 18.08 53.8601 18.08ZM50.5641 12.32C50.5641 12.9813 50.6921 13.6 50.9481 14.176C51.2148 14.752 51.5935 15.2213 52.0841 15.584C52.5855 15.9467 53.1828 16.128 53.8761 16.128C54.5908 16.128 55.1935 15.9413 55.6841 15.568C56.1748 15.1947 56.5481 14.7147 56.8041 14.128C57.0601 13.5413 57.1881 12.9387 57.1881 12.32C57.1881 11.6587 57.0548 11.04 56.7881 10.464C56.5215 9.888 56.1375 9.424 55.6361 9.072C55.1455 8.70933 54.5588 8.528 53.8761 8.528C53.1615 8.528 52.5588 8.71467 52.0681 9.088C51.5775 9.46133 51.2041 9.94133 50.9481 10.528C50.6921 11.104 50.5641 11.7013 50.5641 12.32ZM62.1059 18V6.64H64.3139V18H62.1059ZM69.892 10.704V18H67.684V6.64H69.444L75.316 14.128V6.656H77.524V18H75.684L69.892 10.704ZM80.8871 18V6.64H85.7031C86.2258 6.64 86.7058 6.74667 87.1431 6.96C87.5911 7.17333 87.9751 7.46133 88.2951 7.824C88.6151 8.18667 88.8658 8.592 89.0471 9.04C89.2285 9.488 89.3191 9.94667 89.3191 10.416C89.3191 11.056 89.1698 11.664 88.8711 12.24C88.5725 12.816 88.1565 13.2853 87.6231 13.648C87.1005 14.0107 86.4871 14.192 85.7831 14.192H83.0951V18H80.8871ZM83.0951 12.256H85.6551C86.0605 12.256 86.3965 12.0907 86.6631 11.76C86.9405 11.4187 87.0791 10.9707 87.0791 10.416C87.0791 9.82933 86.9245 9.376 86.6151 9.056C86.3058 8.736 85.9538 8.576 85.5591 8.576H83.0951V12.256ZM91.8559 18V6.64H96.8799C97.4025 6.64 97.8825 6.74667 98.3199 6.96C98.7679 7.17333 99.1519 7.46133 99.4719 7.824C99.8025 8.18667 100.053 8.592 100.224 9.04C100.405 9.488 100.496 9.94667 100.496 10.416C100.496 11.1413 100.309 11.808 99.9359 12.416C99.5732 13.024 99.0772 13.4613 98.4479 13.728L101.04 18H98.6079L96.2719 14.192H94.0639V18H91.8559ZM94.0639 12.256H96.8319C97.2479 12.256 97.5892 12.08 97.8559 11.728C98.1332 11.3653 98.2719 10.928 98.2719 10.416C98.2719 10.064 98.1972 9.74933 98.0479 9.472C97.8985 9.19467 97.7065 8.976 97.4719 8.816C97.2479 8.656 97.0025 8.576 96.7359 8.576H94.0639V12.256ZM103.497 18V6.64H105.705V18H103.497ZM110.243 6.64L113.315 15.376L116.355 6.64H118.675L114.371 18H112.243L107.923 6.64H110.243ZM122.167 6.64L124.967 11.984L127.815 6.64H130.199L126.071 14.032V18H123.879V14L119.767 6.64H122.167Z" fill="#F3F3F3"/>
<defs>
<linearGradient id="paint0_linear" x1="16.6498" y1="1" x2="11.6142" y2="22.959" gradientUnits="userSpaceOnUse">
<stop stop-color="#BEDCFF"/>
<stop offset="0.411458" stop-color="#8EB5FF"/>
<stop offset="1" stop-color="#C6B3FF"/>
</linearGradient>
</defs>
</svg>
